<svg width="24" height="23" viewBox="0 0 24 23" fill="none" xmlns="http://www.w3.org/2000/svg">
<rect width="24" height="23" fill="#1E1E1E"/>
<g id="landing page lo fi">
<rect width="1440" height="6814" transform="translate(-237 -2135)" fill="#F2EFEF"/>
<g id="Male">
<g clip-path="url(#clip0_0_1)">
<rect x="-137" y="-621" width="1240" height="758" rx="8" fill="white"/>
<g id="Frame 133">
<g id="Frame 116">
<g clip-path="url(#clip1_0_1)">
<rect x="-114" y="-509" width="349" height="618.2" rx="8" fill="white"/>
<g id="Frame 121">
<g id="Frame 120">
<g id="Frame 118">
<path id="Star 5" d="M12 1.69138L14.2165 8.85419L14.3255 9.20639H14.6942H21.9329L16.056 13.6897L15.7784 13.9015L15.8816 14.235L18.1136 21.4477L12.3033 17.0152L12 16.7839L11.6967 17.0152L5.88645 21.4477L8.1184 14.235L8.22162 13.9015L7.94401 13.6897L2.06711 9.20639H9.30583H9.6745L9.78349 8.85419L12 1.69138Z" fill="white" stroke="black"/>
</g>
</g>
</g>
</g>
<rect x="-113" y="-508" width="347" height="616.2" rx="7" stroke="#D9D9D9" stroke-width="2"/>
</g>
</g>
</g>
</g>
</g>
<defs>
<clipPath id="clip0_0_1">
<rect x="-137" y="-621" width="1240" height="758" rx="8" fill="white"/>
</clipPath>
<clipPath id="clip1_0_1">
<rect x="-114" y="-509" width="349" height="618.2" rx="8" fill="white"/>
</clipPath>
</defs>
</svg>
